<?xml version="1.0" encoding="utf-8"?>
<!-- Generator: Adobe Illustrator 25.4.1, SVG Export Plug-In . SVG Version: 6.00 Build 0)  -->
<svg version="1.1" id="Layer_1" xmlns="http://www.w3.org/2000/svg" xmlns:xlink="http://www.w3.org/1999/xlink" x="0px" y="0px"
	 viewBox="0 0 150 61" style="enable-background:new 0 0 150 61;" xml:space="preserve">
<style type="text/css">
	.st0{fill:#404040;}
	.st1{fill:url(#SVGID_1_);}
</style>
<g>
	<path class="st0" d="M61.2,31.7v-11H64v10.9c0,2.9,1.4,4.8,3.9,4.8c2.6,0,3.9-1.9,3.9-4.8V20.7h2.7v11c0,4.5-2.2,7.5-6.7,7.5
		C63.5,39.2,61.2,36.2,61.2,31.7z"/>
	<path class="st0" d="M77.8,38.9V20.7h2.4v18.2H77.8z"/>
	<path class="st0" d="M83.9,35.8v-7.6H82v-2.5h1.8v-3.6h2.4v3.6h2.3v2.5h-2.3v6.9c0,0.9,0.4,1.6,1.1,1.6c0.5,0,0.9-0.2,1.1-0.5
		l0.6,2.2c-0.4,0.5-1.2,0.8-2.3,0.8C84.8,39.2,83.9,38,83.9,35.8z"/>
	<path class="st0" d="M90.7,38.9V25.8h2.4v1.9c0.9-1.3,2.2-2.2,3.6-2.2v2.8c-0.2-0.1-0.4-0.1-0.7-0.1c-1,0-2.4,0.8-2.9,1.8v9
		L90.7,38.9L90.7,38.9z"/>
	<path class="st0" d="M105.6,38.9v-1.4c-0.8,1.1-2.1,1.8-3.6,1.8c-1.8,0-3.9-1.5-3.9-4.4c0-3.1,2-4.3,3.9-4.3c1.5,0,2.8,0.6,3.6,1.7
		v-2c0-1.5-1.1-2.5-2.6-2.5c-1.2,0-2.4,0.5-3.3,1.7l-1-2c1.3-1.5,2.9-2.1,4.7-2.1c2.5,0,4.7,1.2,4.7,4.7v8.7h-2.5
		C105.6,38.8,105.6,38.9,105.6,38.9z M105.6,35.9v-2c-0.6-0.9-1.6-1.4-2.7-1.4c-1.4,0-2.4,1-2.4,2.4s1,2.4,2.4,2.4
		C103.9,37.3,105,36.8,105.6,35.9z"/>
	<path class="st0" d="M111.2,38.9V20.7h10.5v2.8h-7.8v4.7h7.7V31h-7.7v5.1h7.8v2.8C121.7,38.9,111.2,38.9,111.2,38.9z"/>
	<path class="st0" d="M132.3,38.9v-1.8c-0.9,1.3-2.1,2.1-3.6,2.1c-2.8,0-4.9-2.6-4.9-6.9c0-4.2,2.1-6.9,4.9-6.9
		c1.4,0,2.7,0.7,3.6,2.2v-6.8h2.4V39L132.3,38.9L132.3,38.9z M132.3,34.9v-5.2c-0.5-1-1.7-1.8-2.9-1.8c-1.9,0-3.2,1.8-3.2,4.4
		c0,2.6,1.2,4.4,3.2,4.4C130.6,36.7,131.8,35.9,132.3,34.9z"/>
	<path class="st0" d="M137.6,22.4c0-1,0.7-1.8,1.5-1.8s1.5,0.8,1.5,1.8s-0.7,1.8-1.5,1.8C138.2,24.1,137.6,23.4,137.6,22.4z
		 M137.9,38.9V25.8h2.4V39L137.9,38.9L137.9,38.9z"/>
	<path class="st0" d="M143.9,35.8v-7.6h-1.8v-2.5h1.8v-3.6h2.4v3.6h2.3v2.5h-2.3v6.9c0,0.9,0.4,1.6,1.1,1.6c0.5,0,0.9-0.2,1.1-0.5
		l0.6,2.2c-0.4,0.5-1.2,0.8-2.3,0.8C144.9,39.2,143.9,38,143.9,35.8z"/>
</g>
<g>
	<circle class="st0" cx="27.5" cy="30.5" r="27.5"/>
	
		<radialGradient id="SVGID_1_" cx="27.5" cy="134.5" r="24.1" gradientTransform="matrix(1 0 0 1 0 -104)" gradientUnits="userSpaceOnUse">
		<stop  offset="0" style="stop-color:#ECD551"/>
		<stop  offset="0.9998" style="stop-color:#BB940E"/>
	</radialGradient>
	<circle class="st1" cx="27.5" cy="30.5" r="24.1"/>
</g>
<g>
	<g>
		<g>
			<path class="st0" d="M11.1,25.6l1.7-12.3H18l-1.7,12.1c-0.3,2.4,0.8,4.2,3.5,4.2s4.3-1.8,4.7-4.2l1.7-12.1h5.1l-1.8,12.2
				c-0.8,5.1-4.2,8.7-10.4,8.7S10.4,30.7,11.1,25.6z"/>
		</g>
	</g>
	<g>
		<g>
			<path class="st0" d="M25.3,49l3-20.6h13.9L41.6,33h-9.1L32,36.2h8.9l-0.6,4.6h-8.9l-0.5,3.5h9.2L39.5,49H25.3z"/>
		</g>
	</g>
</g>
</svg>
